<mxfile host="app.diagrams.net" modified="2021-06-03T07:38:10.218Z" agent="5.0 (Windows NT 6.1; Win64; x64) AppleWebKit/537.36 (KHTML, like Gecko) Chrome/87.0.4280.88 Safari/537.36" etag="99YJY-t9ULi9iNvnsCms" version="14.7.3" type="github">
  <diagram id="yuRKpsNGIxdcTrfj3Hqj" name="Page-1">
    <mxGraphModel dx="1574" dy="796" grid="0" gridSize="5" guides="1" tooltips="1" connect="1" arrows="1" fold="1" page="1" pageScale="1" pageWidth="827" pageHeight="1169" math="0" shadow="0">
      <root>
        <mxCell id="0" />
        <mxCell id="1" parent="0" />
        <mxCell id="8sdzXCSf-Wj2NtYmuSAt-71" value="" style="endArrow=none;html=1;fontSize=16;strokeColor=#000000;strokeWidth=2;" edge="1" parent="1">
          <mxGeometry width="50" height="50" relative="1" as="geometry">
            <mxPoint x="110" y="519.5" as="sourcePoint" />
            <mxPoint x="1050" y="520" as="targetPoint" />
          </mxGeometry>
        </mxCell>
        <mxCell id="8sdzXCSf-Wj2NtYmuSAt-72" value="" style="endArrow=none;html=1;fontSize=16;strokeColor=#000000;strokeWidth=2;" edge="1" parent="1">
          <mxGeometry width="50" height="50" relative="1" as="geometry">
            <mxPoint x="140" y="535" as="sourcePoint" />
            <mxPoint x="140" y="435" as="targetPoint" />
          </mxGeometry>
        </mxCell>
        <mxCell id="8sdzXCSf-Wj2NtYmuSAt-73" value="&lt;font style=&quot;font-size: 11px&quot;&gt;允许申请命令&lt;/font&gt;" style="rounded=1;whiteSpace=wrap;html=1;fontSize=16;fillColor=#6a00ff;strokeColor=#3700CC;fontColor=#ffffff;" vertex="1" parent="1">
          <mxGeometry x="150" y="470" width="80" height="30" as="geometry" />
        </mxCell>
        <mxCell id="8sdzXCSf-Wj2NtYmuSAt-74" value="" style="endArrow=none;html=1;fontSize=16;strokeColor=#000000;strokeWidth=2;" edge="1" parent="1">
          <mxGeometry width="50" height="50" relative="1" as="geometry">
            <mxPoint x="240" y="535" as="sourcePoint" />
            <mxPoint x="240" y="435" as="targetPoint" />
          </mxGeometry>
        </mxCell>
        <mxCell id="8sdzXCSf-Wj2NtYmuSAt-75" value="&lt;font style=&quot;font-size: 11px&quot;&gt;T1&lt;/font&gt;" style="text;html=1;strokeColor=none;fillColor=none;align=center;verticalAlign=middle;whiteSpace=wrap;rounded=0;fontSize=16;" vertex="1" parent="1">
          <mxGeometry x="135" y="540" width="10" height="20" as="geometry" />
        </mxCell>
        <mxCell id="8sdzXCSf-Wj2NtYmuSAt-77" value="&lt;font style=&quot;font-size: 11px&quot;&gt;T2&lt;/font&gt;" style="text;html=1;strokeColor=none;fillColor=none;align=center;verticalAlign=middle;whiteSpace=wrap;rounded=0;fontSize=16;" vertex="1" parent="1">
          <mxGeometry x="235" y="540" width="10" height="20" as="geometry" />
        </mxCell>
        <mxCell id="8sdzXCSf-Wj2NtYmuSAt-78" value="" style="endArrow=none;html=1;fontSize=16;strokeColor=#000000;strokeWidth=2;" edge="1" parent="1">
          <mxGeometry width="50" height="50" relative="1" as="geometry">
            <mxPoint x="295" y="535" as="sourcePoint" />
            <mxPoint x="295" y="435" as="targetPoint" />
          </mxGeometry>
        </mxCell>
        <mxCell id="8sdzXCSf-Wj2NtYmuSAt-79" value="&lt;font style=&quot;font-size: 11px&quot;&gt;T3&lt;/font&gt;" style="text;html=1;strokeColor=none;fillColor=none;align=center;verticalAlign=middle;whiteSpace=wrap;rounded=0;fontSize=16;" vertex="1" parent="1">
          <mxGeometry x="290" y="540" width="10" height="20" as="geometry" />
        </mxCell>
        <mxCell id="8sdzXCSf-Wj2NtYmuSAt-80" value="&lt;font style=&quot;font-size: 11px&quot;&gt;0XAA&lt;/font&gt;" style="rounded=1;whiteSpace=wrap;html=1;fontSize=16;fillColor=#dae8fc;strokeColor=#6c8ebf;" vertex="1" parent="1">
          <mxGeometry x="250" y="355" width="35" height="30" as="geometry" />
        </mxCell>
        <mxCell id="8sdzXCSf-Wj2NtYmuSAt-66" value="从机OE" style="text;html=1;strokeColor=none;fillColor=none;align=center;verticalAlign=middle;whiteSpace=wrap;rounded=0;fontSize=16;" vertex="1" parent="1">
          <mxGeometry x="39" y="50" width="80" height="20" as="geometry" />
        </mxCell>
        <mxCell id="8sdzXCSf-Wj2NtYmuSAt-67" value="主机OE" style="text;html=1;strokeColor=none;fillColor=none;align=center;verticalAlign=middle;whiteSpace=wrap;rounded=0;fontSize=16;" vertex="1" parent="1">
          <mxGeometry x="39" y="245" width="80" height="20" as="geometry" />
        </mxCell>
        <mxCell id="8sdzXCSf-Wj2NtYmuSAt-68" value="总线数据" style="text;html=1;strokeColor=none;fillColor=none;align=center;verticalAlign=middle;whiteSpace=wrap;rounded=0;fontSize=16;" vertex="1" parent="1">
          <mxGeometry x="33" y="505" width="85" height="20" as="geometry" />
        </mxCell>
        <mxCell id="8sdzXCSf-Wj2NtYmuSAt-81" value="主机RX" style="text;html=1;strokeColor=none;fillColor=none;align=center;verticalAlign=middle;whiteSpace=wrap;rounded=0;fontSize=16;" vertex="1" parent="1">
          <mxGeometry x="36.5" y="305" width="81.5" height="20" as="geometry" />
        </mxCell>
        <mxCell id="8sdzXCSf-Wj2NtYmuSAt-82" value="从机RX" style="text;html=1;strokeColor=none;fillColor=none;align=center;verticalAlign=middle;whiteSpace=wrap;rounded=0;fontSize=16;" vertex="1" parent="1">
          <mxGeometry x="39" y="115" width="80" height="20" as="geometry" />
        </mxCell>
        <mxCell id="8sdzXCSf-Wj2NtYmuSAt-85" value="&lt;font style=&quot;font-size: 11px&quot;&gt;允许申请命令&lt;/font&gt;" style="rounded=1;whiteSpace=wrap;html=1;fontSize=16;fillColor=#dae8fc;strokeColor=#6c8ebf;" vertex="1" parent="1">
          <mxGeometry x="146" y="355" width="80" height="30" as="geometry" />
        </mxCell>
        <mxCell id="8sdzXCSf-Wj2NtYmuSAt-88" value="&lt;font style=&quot;font-size: 11px&quot;&gt;允许申请命令&lt;/font&gt;" style="rounded=1;whiteSpace=wrap;html=1;fontSize=16;fillColor=#d5e8d4;strokeColor=#82b366;" vertex="1" parent="1">
          <mxGeometry x="150" y="110" width="80" height="30" as="geometry" />
        </mxCell>
        <mxCell id="8sdzXCSf-Wj2NtYmuSAt-89" value="" style="endArrow=none;html=1;fontSize=16;strokeColor=#000000;strokeWidth=2;" edge="1" parent="1">
          <mxGeometry width="50" height="50" relative="1" as="geometry">
            <mxPoint x="350" y="535" as="sourcePoint" />
            <mxPoint x="350" y="435" as="targetPoint" />
          </mxGeometry>
        </mxCell>
        <mxCell id="8sdzXCSf-Wj2NtYmuSAt-90" value="&lt;font style=&quot;font-size: 11px&quot;&gt;T4&lt;/font&gt;" style="text;html=1;strokeColor=none;fillColor=none;align=center;verticalAlign=middle;whiteSpace=wrap;rounded=0;fontSize=16;" vertex="1" parent="1">
          <mxGeometry x="345" y="540" width="10" height="20" as="geometry" />
        </mxCell>
        <mxCell id="8sdzXCSf-Wj2NtYmuSAt-91" value="&lt;font style=&quot;font-size: 11px&quot;&gt;0XAA&lt;/font&gt;" style="rounded=1;whiteSpace=wrap;html=1;fontSize=16;fillColor=#6a00ff;strokeColor=#3700CC;fontColor=#ffffff;" vertex="1" parent="1">
          <mxGeometry x="305" y="470" width="35" height="30" as="geometry" />
        </mxCell>
        <mxCell id="8sdzXCSf-Wj2NtYmuSAt-94" value="&lt;font style=&quot;font-size: 11px&quot;&gt;0XAA&lt;/font&gt;" style="rounded=1;whiteSpace=wrap;html=1;fontSize=16;fillColor=#dae8fc;strokeColor=#6c8ebf;" vertex="1" parent="1">
          <mxGeometry x="360" y="355" width="35" height="30" as="geometry" />
        </mxCell>
        <mxCell id="8sdzXCSf-Wj2NtYmuSAt-95" value="" style="endArrow=none;html=1;fontSize=16;strokeColor=#000000;strokeWidth=2;" edge="1" parent="1">
          <mxGeometry width="50" height="50" relative="1" as="geometry">
            <mxPoint x="459" y="535" as="sourcePoint" />
            <mxPoint x="459" y="435" as="targetPoint" />
          </mxGeometry>
        </mxCell>
        <mxCell id="8sdzXCSf-Wj2NtYmuSAt-96" value="&lt;font style=&quot;font-size: 11px&quot;&gt;T5&lt;/font&gt;" style="text;html=1;strokeColor=none;fillColor=none;align=center;verticalAlign=middle;whiteSpace=wrap;rounded=0;fontSize=16;" vertex="1" parent="1">
          <mxGeometry x="454" y="540" width="10" height="20" as="geometry" />
        </mxCell>
        <mxCell id="8sdzXCSf-Wj2NtYmuSAt-97" value="&lt;font style=&quot;font-size: 11px&quot;&gt;0XAA&lt;/font&gt;" style="rounded=1;whiteSpace=wrap;html=1;fontSize=16;fillColor=#dae8fc;strokeColor=#6c8ebf;" vertex="1" parent="1">
          <mxGeometry x="405" y="355" width="35" height="30" as="geometry" />
        </mxCell>
        <mxCell id="8sdzXCSf-Wj2NtYmuSAt-104" value="&lt;font style=&quot;font-size: 11px&quot;&gt;高阻&lt;/font&gt;" style="rounded=1;whiteSpace=wrap;html=1;fontSize=16;fillColor=#60a917;strokeColor=#2D7600;fontColor=#ffffff;" vertex="1" parent="1">
          <mxGeometry x="250" y="110" width="35" height="30" as="geometry" />
        </mxCell>
        <mxCell id="8sdzXCSf-Wj2NtYmuSAt-105" value="&lt;font style=&quot;font-size: 11px&quot;&gt;0XAA&lt;/font&gt;" style="rounded=1;whiteSpace=wrap;html=1;fontSize=16;fillColor=#d5e8d4;strokeColor=#82b366;" vertex="1" parent="1">
          <mxGeometry x="305" y="110" width="35" height="30" as="geometry" />
        </mxCell>
        <mxCell id="8sdzXCSf-Wj2NtYmuSAt-106" value="&lt;font style=&quot;font-size: 11px&quot;&gt;从机地址&lt;/font&gt;" style="rounded=1;whiteSpace=wrap;html=1;fontSize=16;fillColor=#d5e8d4;strokeColor=#82b366;" vertex="1" parent="1">
          <mxGeometry x="360" y="170" width="80" height="30" as="geometry" />
        </mxCell>
        <mxCell id="8sdzXCSf-Wj2NtYmuSAt-108" value="&lt;font style=&quot;font-size: 11px&quot;&gt;高阻&lt;/font&gt;" style="rounded=1;whiteSpace=wrap;html=1;fontSize=16;fillColor=#60a917;strokeColor=#2D7600;fontColor=#ffffff;" vertex="1" parent="1">
          <mxGeometry x="250" y="470" width="35" height="30" as="geometry" />
        </mxCell>
        <mxCell id="8sdzXCSf-Wj2NtYmuSAt-109" value="&lt;font style=&quot;font-size: 11px&quot;&gt;0XAA&lt;/font&gt;" style="rounded=1;whiteSpace=wrap;html=1;fontSize=16;fillColor=#dae8fc;strokeColor=#6c8ebf;" vertex="1" parent="1">
          <mxGeometry x="305" y="355" width="35" height="30" as="geometry" />
        </mxCell>
        <mxCell id="8sdzXCSf-Wj2NtYmuSAt-112" value="&lt;font style=&quot;font-size: 11px&quot;&gt;从机地址&lt;/font&gt;" style="rounded=1;whiteSpace=wrap;html=1;fontSize=16;fillColor=#d80073;strokeColor=#A50040;fontColor=#ffffff;" vertex="1" parent="1">
          <mxGeometry x="360" y="470" width="80" height="30" as="geometry" />
        </mxCell>
        <mxCell id="8sdzXCSf-Wj2NtYmuSAt-113" value="从机TX" style="text;html=1;strokeColor=none;fillColor=none;align=center;verticalAlign=middle;whiteSpace=wrap;rounded=0;fontSize=16;" vertex="1" parent="1">
          <mxGeometry x="36.5" y="175" width="85" height="20" as="geometry" />
        </mxCell>
        <mxCell id="8sdzXCSf-Wj2NtYmuSAt-114" value="主机TX" style="text;html=1;strokeColor=none;fillColor=none;align=center;verticalAlign=middle;whiteSpace=wrap;rounded=0;fontSize=16;" vertex="1" parent="1">
          <mxGeometry x="33" y="360" width="85" height="20" as="geometry" />
        </mxCell>
        <mxCell id="8sdzXCSf-Wj2NtYmuSAt-115" value="&lt;font style=&quot;font-size: 11px&quot;&gt;高阻&lt;/font&gt;" style="rounded=1;whiteSpace=wrap;html=1;fontSize=16;fillColor=#60a917;strokeColor=#2D7600;fontColor=#ffffff;" vertex="1" parent="1">
          <mxGeometry x="150" y="170" width="80" height="30" as="geometry" />
        </mxCell>
        <mxCell id="8sdzXCSf-Wj2NtYmuSAt-116" value="&lt;font style=&quot;font-size: 11px&quot;&gt;高阻&lt;/font&gt;" style="rounded=1;whiteSpace=wrap;html=1;fontSize=16;fillColor=#60a917;strokeColor=#2D7600;fontColor=#ffffff;" vertex="1" parent="1">
          <mxGeometry x="146" y="295" width="80" height="30" as="geometry" />
        </mxCell>
        <mxCell id="8sdzXCSf-Wj2NtYmuSAt-117" value="&lt;font style=&quot;font-size: 11px&quot;&gt;高阻&lt;/font&gt;" style="rounded=1;whiteSpace=wrap;html=1;fontSize=16;fillColor=#60a917;strokeColor=#2D7600;fontColor=#ffffff;" vertex="1" parent="1">
          <mxGeometry x="250" y="170" width="35" height="30" as="geometry" />
        </mxCell>
        <mxCell id="8sdzXCSf-Wj2NtYmuSAt-119" value="&lt;font style=&quot;font-size: 11px&quot;&gt;高阻&lt;/font&gt;" style="rounded=1;whiteSpace=wrap;html=1;fontSize=16;fillColor=#60a917;strokeColor=#2D7600;fontColor=#ffffff;" vertex="1" parent="1">
          <mxGeometry x="305" y="170" width="35" height="30" as="geometry" />
        </mxCell>
        <mxCell id="8sdzXCSf-Wj2NtYmuSAt-120" value="&lt;font style=&quot;font-size: 11px&quot;&gt;高阻&lt;/font&gt;" style="rounded=1;whiteSpace=wrap;html=1;fontSize=16;fillColor=#60a917;strokeColor=#2D7600;fontColor=#ffffff;" vertex="1" parent="1">
          <mxGeometry x="360" y="110" width="80" height="30" as="geometry" />
        </mxCell>
        <mxCell id="8sdzXCSf-Wj2NtYmuSAt-121" value="&lt;font style=&quot;font-size: 11px&quot;&gt;高阻&lt;/font&gt;" style="rounded=1;whiteSpace=wrap;html=1;fontSize=16;fillColor=#60a917;strokeColor=#2D7600;fontColor=#ffffff;" vertex="1" parent="1">
          <mxGeometry x="250" y="295" width="35" height="30" as="geometry" />
        </mxCell>
        <mxCell id="8sdzXCSf-Wj2NtYmuSAt-122" value="&lt;font style=&quot;font-size: 11px&quot;&gt;高阻&lt;/font&gt;" style="rounded=1;whiteSpace=wrap;html=1;fontSize=16;fillColor=#60a917;strokeColor=#2D7600;fontColor=#ffffff;" vertex="1" parent="1">
          <mxGeometry x="305" y="295" width="35" height="30" as="geometry" />
        </mxCell>
        <mxCell id="8sdzXCSf-Wj2NtYmuSAt-123" value="&lt;font style=&quot;font-size: 11px&quot;&gt;从机地址&lt;/font&gt;" style="rounded=1;whiteSpace=wrap;html=1;fontSize=16;fillColor=#d5e8d4;strokeColor=#82b366;" vertex="1" parent="1">
          <mxGeometry x="360" y="295" width="80" height="30" as="geometry" />
        </mxCell>
        <mxCell id="8sdzXCSf-Wj2NtYmuSAt-124" value="S" style="rounded=0;whiteSpace=wrap;html=1;fontSize=16;fillColor=#dae8fc;strokeColor=#6c8ebf;" vertex="1" parent="1">
          <mxGeometry x="140" y="235" width="100" height="40" as="geometry" />
        </mxCell>
        <mxCell id="8sdzXCSf-Wj2NtYmuSAt-126" value="R" style="rounded=0;whiteSpace=wrap;html=1;fontSize=16;fillColor=#d5e8d4;strokeColor=#82b366;" vertex="1" parent="1">
          <mxGeometry x="240" y="235" width="55" height="40" as="geometry" />
        </mxCell>
        <mxCell id="8sdzXCSf-Wj2NtYmuSAt-127" value="S" style="rounded=0;whiteSpace=wrap;html=1;fontSize=16;fillColor=#dae8fc;strokeColor=#6c8ebf;" vertex="1" parent="1">
          <mxGeometry x="295" y="235" width="55" height="40" as="geometry" />
        </mxCell>
        <mxCell id="8sdzXCSf-Wj2NtYmuSAt-128" value="R" style="rounded=0;whiteSpace=wrap;html=1;fontSize=16;fillColor=#d5e8d4;strokeColor=#82b366;" vertex="1" parent="1">
          <mxGeometry x="350" y="235" width="110" height="40" as="geometry" />
        </mxCell>
        <mxCell id="8sdzXCSf-Wj2NtYmuSAt-129" value="R" style="rounded=0;whiteSpace=wrap;html=1;fontSize=16;fillColor=#d5e8d4;strokeColor=#82b366;" vertex="1" parent="1">
          <mxGeometry x="240" y="40" width="110" height="40" as="geometry" />
        </mxCell>
        <mxCell id="8sdzXCSf-Wj2NtYmuSAt-130" value="S" style="rounded=0;whiteSpace=wrap;html=1;fontSize=16;fillColor=#dae8fc;strokeColor=#6c8ebf;" vertex="1" parent="1">
          <mxGeometry x="350" y="40" width="110" height="40" as="geometry" />
        </mxCell>
        <mxCell id="8sdzXCSf-Wj2NtYmuSAt-133" value="" style="endArrow=none;html=1;fontSize=16;strokeColor=#000000;strokeWidth=2;" edge="1" parent="1">
          <mxGeometry width="50" height="50" relative="1" as="geometry">
            <mxPoint x="510.5" y="535" as="sourcePoint" />
            <mxPoint x="510.5" y="435" as="targetPoint" />
          </mxGeometry>
        </mxCell>
        <mxCell id="8sdzXCSf-Wj2NtYmuSAt-134" value="&lt;font style=&quot;font-size: 11px&quot;&gt;T3&lt;/font&gt;" style="text;html=1;strokeColor=none;fillColor=none;align=center;verticalAlign=middle;whiteSpace=wrap;rounded=0;fontSize=16;" vertex="1" parent="1">
          <mxGeometry x="505.5" y="540" width="10" height="20" as="geometry" />
        </mxCell>
        <mxCell id="8sdzXCSf-Wj2NtYmuSAt-135" value="" style="endArrow=none;html=1;fontSize=16;strokeColor=#000000;strokeWidth=2;" edge="1" parent="1">
          <mxGeometry width="50" height="50" relative="1" as="geometry">
            <mxPoint x="565.5" y="535" as="sourcePoint" />
            <mxPoint x="565.5" y="435" as="targetPoint" />
          </mxGeometry>
        </mxCell>
        <mxCell id="8sdzXCSf-Wj2NtYmuSAt-136" value="&lt;font style=&quot;font-size: 11px&quot;&gt;T4&lt;/font&gt;" style="text;html=1;strokeColor=none;fillColor=none;align=center;verticalAlign=middle;whiteSpace=wrap;rounded=0;fontSize=16;" vertex="1" parent="1">
          <mxGeometry x="560.5" y="540" width="10" height="20" as="geometry" />
        </mxCell>
        <mxCell id="8sdzXCSf-Wj2NtYmuSAt-137" value="&lt;font style=&quot;font-size: 11px&quot;&gt;0XAA&lt;/font&gt;" style="rounded=1;whiteSpace=wrap;html=1;fontSize=16;fillColor=#6a00ff;strokeColor=#3700CC;fontColor=#ffffff;" vertex="1" parent="1">
          <mxGeometry x="520.5" y="470" width="35" height="30" as="geometry" />
        </mxCell>
        <mxCell id="8sdzXCSf-Wj2NtYmuSAt-138" value="" style="endArrow=none;html=1;fontSize=16;strokeColor=#000000;strokeWidth=2;" edge="1" parent="1">
          <mxGeometry width="50" height="50" relative="1" as="geometry">
            <mxPoint x="674.5" y="535" as="sourcePoint" />
            <mxPoint x="674.5" y="435" as="targetPoint" />
          </mxGeometry>
        </mxCell>
        <mxCell id="8sdzXCSf-Wj2NtYmuSAt-139" value="&lt;font style=&quot;font-size: 11px&quot;&gt;T5&lt;/font&gt;" style="text;html=1;strokeColor=none;fillColor=none;align=center;verticalAlign=middle;whiteSpace=wrap;rounded=0;fontSize=16;" vertex="1" parent="1">
          <mxGeometry x="669.5" y="540" width="10" height="20" as="geometry" />
        </mxCell>
        <mxCell id="8sdzXCSf-Wj2NtYmuSAt-140" value="&lt;font style=&quot;font-size: 11px&quot;&gt;高阻&lt;/font&gt;" style="rounded=1;whiteSpace=wrap;html=1;fontSize=16;fillColor=#60a917;strokeColor=#2D7600;fontColor=#ffffff;" vertex="1" parent="1">
          <mxGeometry x="470.5" y="470" width="35" height="30" as="geometry" />
        </mxCell>
        <mxCell id="8sdzXCSf-Wj2NtYmuSAt-141" value="&lt;font style=&quot;font-size: 11px&quot;&gt;从机地址&lt;/font&gt;" style="rounded=1;whiteSpace=wrap;html=1;fontSize=16;fillColor=#d80073;strokeColor=#A50040;fontColor=#ffffff;" vertex="1" parent="1">
          <mxGeometry x="575.5" y="470" width="80" height="30" as="geometry" />
        </mxCell>
        <mxCell id="8sdzXCSf-Wj2NtYmuSAt-142" value="&lt;font style=&quot;font-size: 11px&quot;&gt;0XAA&lt;/font&gt;" style="rounded=1;whiteSpace=wrap;html=1;fontSize=16;fillColor=#dae8fc;strokeColor=#6c8ebf;" vertex="1" parent="1">
          <mxGeometry x="469.5" y="355" width="35" height="30" as="geometry" />
        </mxCell>
        <mxCell id="8sdzXCSf-Wj2NtYmuSAt-143" value="&lt;font style=&quot;font-size: 11px&quot;&gt;0XAA&lt;/font&gt;" style="rounded=1;whiteSpace=wrap;html=1;fontSize=16;fillColor=#dae8fc;strokeColor=#6c8ebf;" vertex="1" parent="1">
          <mxGeometry x="579.5" y="355" width="35" height="30" as="geometry" />
        </mxCell>
        <mxCell id="8sdzXCSf-Wj2NtYmuSAt-144" value="&lt;font style=&quot;font-size: 11px&quot;&gt;0XAA&lt;/font&gt;" style="rounded=1;whiteSpace=wrap;html=1;fontSize=16;fillColor=#dae8fc;strokeColor=#6c8ebf;" vertex="1" parent="1">
          <mxGeometry x="624.5" y="355" width="35" height="30" as="geometry" />
        </mxCell>
        <mxCell id="8sdzXCSf-Wj2NtYmuSAt-145" value="&lt;font style=&quot;font-size: 11px&quot;&gt;高阻&lt;/font&gt;" style="rounded=1;whiteSpace=wrap;html=1;fontSize=16;fillColor=#60a917;strokeColor=#2D7600;fontColor=#ffffff;" vertex="1" parent="1">
          <mxGeometry x="469.5" y="110" width="35" height="30" as="geometry" />
        </mxCell>
        <mxCell id="8sdzXCSf-Wj2NtYmuSAt-146" value="&lt;font style=&quot;font-size: 11px&quot;&gt;0XAA&lt;/font&gt;" style="rounded=1;whiteSpace=wrap;html=1;fontSize=16;fillColor=#d5e8d4;strokeColor=#82b366;" vertex="1" parent="1">
          <mxGeometry x="524.5" y="110" width="35" height="30" as="geometry" />
        </mxCell>
        <mxCell id="8sdzXCSf-Wj2NtYmuSAt-147" value="&lt;font style=&quot;font-size: 11px&quot;&gt;从机地址&lt;/font&gt;" style="rounded=1;whiteSpace=wrap;html=1;fontSize=16;fillColor=#d5e8d4;strokeColor=#82b366;" vertex="1" parent="1">
          <mxGeometry x="579.5" y="170" width="80" height="30" as="geometry" />
        </mxCell>
        <mxCell id="8sdzXCSf-Wj2NtYmuSAt-148" value="&lt;font style=&quot;font-size: 11px&quot;&gt;0XAA&lt;/font&gt;" style="rounded=1;whiteSpace=wrap;html=1;fontSize=16;fillColor=#dae8fc;strokeColor=#6c8ebf;" vertex="1" parent="1">
          <mxGeometry x="524.5" y="355" width="35" height="30" as="geometry" />
        </mxCell>
        <mxCell id="8sdzXCSf-Wj2NtYmuSAt-149" value="&lt;font style=&quot;font-size: 11px&quot;&gt;高阻&lt;/font&gt;" style="rounded=1;whiteSpace=wrap;html=1;fontSize=16;fillColor=#60a917;strokeColor=#2D7600;fontColor=#ffffff;" vertex="1" parent="1">
          <mxGeometry x="469.5" y="170" width="35" height="30" as="geometry" />
        </mxCell>
        <mxCell id="8sdzXCSf-Wj2NtYmuSAt-150" value="&lt;font style=&quot;font-size: 11px&quot;&gt;高阻&lt;/font&gt;" style="rounded=1;whiteSpace=wrap;html=1;fontSize=16;fillColor=#60a917;strokeColor=#2D7600;fontColor=#ffffff;" vertex="1" parent="1">
          <mxGeometry x="524.5" y="170" width="35" height="30" as="geometry" />
        </mxCell>
        <mxCell id="8sdzXCSf-Wj2NtYmuSAt-151" value="&lt;font style=&quot;font-size: 11px&quot;&gt;高阻&lt;/font&gt;" style="rounded=1;whiteSpace=wrap;html=1;fontSize=16;fillColor=#60a917;strokeColor=#2D7600;fontColor=#ffffff;" vertex="1" parent="1">
          <mxGeometry x="579.5" y="110" width="80" height="30" as="geometry" />
        </mxCell>
        <mxCell id="8sdzXCSf-Wj2NtYmuSAt-152" value="&lt;font style=&quot;font-size: 11px&quot;&gt;高阻&lt;/font&gt;" style="rounded=1;whiteSpace=wrap;html=1;fontSize=16;fillColor=#60a917;strokeColor=#2D7600;fontColor=#ffffff;" vertex="1" parent="1">
          <mxGeometry x="469.5" y="295" width="35" height="30" as="geometry" />
        </mxCell>
        <mxCell id="8sdzXCSf-Wj2NtYmuSAt-153" value="&lt;font style=&quot;font-size: 11px&quot;&gt;高阻&lt;/font&gt;" style="rounded=1;whiteSpace=wrap;html=1;fontSize=16;fillColor=#60a917;strokeColor=#2D7600;fontColor=#ffffff;" vertex="1" parent="1">
          <mxGeometry x="524.5" y="295" width="35" height="30" as="geometry" />
        </mxCell>
        <mxCell id="8sdzXCSf-Wj2NtYmuSAt-154" value="&lt;font style=&quot;font-size: 11px&quot;&gt;从机地址&lt;/font&gt;" style="rounded=1;whiteSpace=wrap;html=1;fontSize=16;fillColor=#d5e8d4;strokeColor=#82b366;" vertex="1" parent="1">
          <mxGeometry x="579.5" y="295" width="80" height="30" as="geometry" />
        </mxCell>
        <mxCell id="8sdzXCSf-Wj2NtYmuSAt-155" value="R" style="rounded=0;whiteSpace=wrap;html=1;fontSize=16;fillColor=#d5e8d4;strokeColor=#82b366;" vertex="1" parent="1">
          <mxGeometry x="459.5" y="235" width="55" height="40" as="geometry" />
        </mxCell>
        <mxCell id="8sdzXCSf-Wj2NtYmuSAt-156" value="S" style="rounded=0;whiteSpace=wrap;html=1;fontSize=16;fillColor=#dae8fc;strokeColor=#6c8ebf;" vertex="1" parent="1">
          <mxGeometry x="514.5" y="235" width="55" height="40" as="geometry" />
        </mxCell>
        <mxCell id="8sdzXCSf-Wj2NtYmuSAt-157" value="R" style="rounded=0;whiteSpace=wrap;html=1;fontSize=16;fillColor=#d5e8d4;strokeColor=#82b366;" vertex="1" parent="1">
          <mxGeometry x="569.5" y="235" width="110" height="40" as="geometry" />
        </mxCell>
        <mxCell id="8sdzXCSf-Wj2NtYmuSAt-158" value="S" style="rounded=0;whiteSpace=wrap;html=1;fontSize=16;fillColor=#dae8fc;strokeColor=#6c8ebf;" vertex="1" parent="1">
          <mxGeometry x="569.5" y="40" width="110" height="40" as="geometry" />
        </mxCell>
        <mxCell id="8sdzXCSf-Wj2NtYmuSAt-159" value="R" style="rounded=0;whiteSpace=wrap;html=1;fontSize=16;fillColor=#d5e8d4;strokeColor=#82b366;" vertex="1" parent="1">
          <mxGeometry x="460.5" y="40" width="109.5" height="40" as="geometry" />
        </mxCell>
        <mxCell id="8sdzXCSf-Wj2NtYmuSAt-160" value="&lt;font style=&quot;font-size: 40px&quot;&gt;...&lt;/font&gt;" style="text;html=1;strokeColor=none;fillColor=none;align=center;verticalAlign=middle;whiteSpace=wrap;rounded=0;fontSize=16;" vertex="1" parent="1">
          <mxGeometry x="715" y="220" width="50" height="45" as="geometry" />
        </mxCell>
        <mxCell id="8sdzXCSf-Wj2NtYmuSAt-161" value="" style="endArrow=none;html=1;fontSize=16;strokeColor=#000000;strokeWidth=2;" edge="1" parent="1">
          <mxGeometry width="50" height="50" relative="1" as="geometry">
            <mxPoint x="836" y="530" as="sourcePoint" />
            <mxPoint x="836" y="430" as="targetPoint" />
          </mxGeometry>
        </mxCell>
        <mxCell id="8sdzXCSf-Wj2NtYmuSAt-162" value="&lt;font style=&quot;font-size: 11px&quot;&gt;T3&lt;/font&gt;" style="text;html=1;strokeColor=none;fillColor=none;align=center;verticalAlign=middle;whiteSpace=wrap;rounded=0;fontSize=16;" vertex="1" parent="1">
          <mxGeometry x="831" y="535" width="10" height="20" as="geometry" />
        </mxCell>
        <mxCell id="8sdzXCSf-Wj2NtYmuSAt-163" value="" style="endArrow=none;html=1;fontSize=16;strokeColor=#000000;strokeWidth=2;" edge="1" parent="1">
          <mxGeometry width="50" height="50" relative="1" as="geometry">
            <mxPoint x="891" y="530" as="sourcePoint" />
            <mxPoint x="891" y="430" as="targetPoint" />
          </mxGeometry>
        </mxCell>
        <mxCell id="8sdzXCSf-Wj2NtYmuSAt-164" value="&lt;font style=&quot;font-size: 11px&quot;&gt;T4&lt;/font&gt;" style="text;html=1;strokeColor=none;fillColor=none;align=center;verticalAlign=middle;whiteSpace=wrap;rounded=0;fontSize=16;" vertex="1" parent="1">
          <mxGeometry x="886" y="535" width="10" height="20" as="geometry" />
        </mxCell>
        <mxCell id="8sdzXCSf-Wj2NtYmuSAt-165" value="&lt;font style=&quot;font-size: 11px&quot;&gt;0XAA&lt;/font&gt;" style="rounded=1;whiteSpace=wrap;html=1;fontSize=16;fillColor=#6a00ff;strokeColor=#3700CC;fontColor=#ffffff;" vertex="1" parent="1">
          <mxGeometry x="846" y="465" width="35" height="30" as="geometry" />
        </mxCell>
        <mxCell id="8sdzXCSf-Wj2NtYmuSAt-166" value="" style="endArrow=none;html=1;fontSize=16;strokeColor=#000000;strokeWidth=2;" edge="1" parent="1">
          <mxGeometry width="50" height="50" relative="1" as="geometry">
            <mxPoint x="1000" y="530" as="sourcePoint" />
            <mxPoint x="1000" y="430" as="targetPoint" />
          </mxGeometry>
        </mxCell>
        <mxCell id="8sdzXCSf-Wj2NtYmuSAt-167" value="&lt;font style=&quot;font-size: 11px&quot;&gt;T5&lt;/font&gt;" style="text;html=1;strokeColor=none;fillColor=none;align=center;verticalAlign=middle;whiteSpace=wrap;rounded=0;fontSize=16;" vertex="1" parent="1">
          <mxGeometry x="995" y="535" width="10" height="20" as="geometry" />
        </mxCell>
        <mxCell id="8sdzXCSf-Wj2NtYmuSAt-168" value="&lt;font style=&quot;font-size: 11px&quot;&gt;高阻&lt;/font&gt;" style="rounded=1;whiteSpace=wrap;html=1;fontSize=16;fillColor=#60a917;strokeColor=#2D7600;fontColor=#ffffff;" vertex="1" parent="1">
          <mxGeometry x="791" y="465" width="35" height="30" as="geometry" />
        </mxCell>
        <mxCell id="8sdzXCSf-Wj2NtYmuSAt-169" value="&lt;font style=&quot;font-size: 11px&quot;&gt;从机地址&lt;/font&gt;" style="rounded=1;whiteSpace=wrap;html=1;fontSize=16;fillColor=#d80073;strokeColor=#A50040;fontColor=#ffffff;" vertex="1" parent="1">
          <mxGeometry x="901" y="465" width="80" height="30" as="geometry" />
        </mxCell>
        <mxCell id="8sdzXCSf-Wj2NtYmuSAt-170" value="&lt;font style=&quot;font-size: 11px&quot;&gt;0XAA&lt;/font&gt;" style="rounded=1;whiteSpace=wrap;html=1;fontSize=16;fillColor=#dae8fc;strokeColor=#6c8ebf;" vertex="1" parent="1">
          <mxGeometry x="795" y="350" width="35" height="30" as="geometry" />
        </mxCell>
        <mxCell id="8sdzXCSf-Wj2NtYmuSAt-171" value="&lt;font style=&quot;font-size: 11px&quot;&gt;0XAA&lt;/font&gt;" style="rounded=1;whiteSpace=wrap;html=1;fontSize=16;fillColor=#dae8fc;strokeColor=#6c8ebf;" vertex="1" parent="1">
          <mxGeometry x="905" y="350" width="35" height="30" as="geometry" />
        </mxCell>
        <mxCell id="8sdzXCSf-Wj2NtYmuSAt-172" value="&lt;font style=&quot;font-size: 11px&quot;&gt;0XAA&lt;/font&gt;" style="rounded=1;whiteSpace=wrap;html=1;fontSize=16;fillColor=#dae8fc;strokeColor=#6c8ebf;" vertex="1" parent="1">
          <mxGeometry x="950" y="350" width="35" height="30" as="geometry" />
        </mxCell>
        <mxCell id="8sdzXCSf-Wj2NtYmuSAt-173" value="&lt;font style=&quot;font-size: 11px&quot;&gt;高阻&lt;/font&gt;" style="rounded=1;whiteSpace=wrap;html=1;fontSize=16;fillColor=#60a917;strokeColor=#2D7600;fontColor=#ffffff;" vertex="1" parent="1">
          <mxGeometry x="795" y="105" width="35" height="30" as="geometry" />
        </mxCell>
        <mxCell id="8sdzXCSf-Wj2NtYmuSAt-174" value="&lt;font style=&quot;font-size: 11px&quot;&gt;0XAA&lt;/font&gt;" style="rounded=1;whiteSpace=wrap;html=1;fontSize=16;fillColor=#d5e8d4;strokeColor=#82b366;" vertex="1" parent="1">
          <mxGeometry x="850" y="105" width="35" height="30" as="geometry" />
        </mxCell>
        <mxCell id="8sdzXCSf-Wj2NtYmuSAt-175" value="&lt;font style=&quot;font-size: 11px&quot;&gt;从机地址&lt;/font&gt;" style="rounded=1;whiteSpace=wrap;html=1;fontSize=16;fillColor=#d5e8d4;strokeColor=#82b366;" vertex="1" parent="1">
          <mxGeometry x="905" y="165" width="80" height="30" as="geometry" />
        </mxCell>
        <mxCell id="8sdzXCSf-Wj2NtYmuSAt-176" value="&lt;font style=&quot;font-size: 11px&quot;&gt;0XAA&lt;/font&gt;" style="rounded=1;whiteSpace=wrap;html=1;fontSize=16;fillColor=#dae8fc;strokeColor=#6c8ebf;" vertex="1" parent="1">
          <mxGeometry x="850" y="350" width="35" height="30" as="geometry" />
        </mxCell>
        <mxCell id="8sdzXCSf-Wj2NtYmuSAt-177" value="&lt;font style=&quot;font-size: 11px&quot;&gt;高阻&lt;/font&gt;" style="rounded=1;whiteSpace=wrap;html=1;fontSize=16;fillColor=#60a917;strokeColor=#2D7600;fontColor=#ffffff;" vertex="1" parent="1">
          <mxGeometry x="795" y="165" width="35" height="30" as="geometry" />
        </mxCell>
        <mxCell id="8sdzXCSf-Wj2NtYmuSAt-178" value="&lt;font style=&quot;font-size: 11px&quot;&gt;高阻&lt;/font&gt;" style="rounded=1;whiteSpace=wrap;html=1;fontSize=16;fillColor=#60a917;strokeColor=#2D7600;fontColor=#ffffff;" vertex="1" parent="1">
          <mxGeometry x="850" y="165" width="35" height="30" as="geometry" />
        </mxCell>
        <mxCell id="8sdzXCSf-Wj2NtYmuSAt-179" value="&lt;font style=&quot;font-size: 11px&quot;&gt;高阻&lt;/font&gt;" style="rounded=1;whiteSpace=wrap;html=1;fontSize=16;fillColor=#60a917;strokeColor=#2D7600;fontColor=#ffffff;" vertex="1" parent="1">
          <mxGeometry x="905" y="105" width="80" height="30" as="geometry" />
        </mxCell>
        <mxCell id="8sdzXCSf-Wj2NtYmuSAt-180" value="&lt;font style=&quot;font-size: 11px&quot;&gt;高阻&lt;/font&gt;" style="rounded=1;whiteSpace=wrap;html=1;fontSize=16;fillColor=#60a917;strokeColor=#2D7600;fontColor=#ffffff;" vertex="1" parent="1">
          <mxGeometry x="795" y="290" width="35" height="30" as="geometry" />
        </mxCell>
        <mxCell id="8sdzXCSf-Wj2NtYmuSAt-181" value="&lt;font style=&quot;font-size: 11px&quot;&gt;高阻&lt;/font&gt;" style="rounded=1;whiteSpace=wrap;html=1;fontSize=16;fillColor=#60a917;strokeColor=#2D7600;fontColor=#ffffff;" vertex="1" parent="1">
          <mxGeometry x="850" y="290" width="35" height="30" as="geometry" />
        </mxCell>
        <mxCell id="8sdzXCSf-Wj2NtYmuSAt-182" value="&lt;font style=&quot;font-size: 11px&quot;&gt;从机地址&lt;/font&gt;" style="rounded=1;whiteSpace=wrap;html=1;fontSize=16;fillColor=#d5e8d4;strokeColor=#82b366;" vertex="1" parent="1">
          <mxGeometry x="905" y="290" width="80" height="30" as="geometry" />
        </mxCell>
        <mxCell id="8sdzXCSf-Wj2NtYmuSAt-183" value="R" style="rounded=0;whiteSpace=wrap;html=1;fontSize=16;fillColor=#d5e8d4;strokeColor=#82b366;" vertex="1" parent="1">
          <mxGeometry x="785" y="230" width="55" height="40" as="geometry" />
        </mxCell>
        <mxCell id="8sdzXCSf-Wj2NtYmuSAt-184" value="S" style="rounded=0;whiteSpace=wrap;html=1;fontSize=16;fillColor=#dae8fc;strokeColor=#6c8ebf;" vertex="1" parent="1">
          <mxGeometry x="840" y="230" width="55" height="40" as="geometry" />
        </mxCell>
        <mxCell id="8sdzXCSf-Wj2NtYmuSAt-185" value="R" style="rounded=0;whiteSpace=wrap;html=1;fontSize=16;fillColor=#d5e8d4;strokeColor=#82b366;" vertex="1" parent="1">
          <mxGeometry x="895" y="230" width="110" height="40" as="geometry" />
        </mxCell>
        <mxCell id="8sdzXCSf-Wj2NtYmuSAt-186" value="S" style="rounded=0;whiteSpace=wrap;html=1;fontSize=16;fillColor=#dae8fc;strokeColor=#6c8ebf;" vertex="1" parent="1">
          <mxGeometry x="895" y="35" width="110" height="40" as="geometry" />
        </mxCell>
        <mxCell id="8sdzXCSf-Wj2NtYmuSAt-187" value="R" style="rounded=0;whiteSpace=wrap;html=1;fontSize=16;fillColor=#d5e8d4;strokeColor=#82b366;" vertex="1" parent="1">
          <mxGeometry x="786" y="35" width="109.5" height="40" as="geometry" />
        </mxCell>
        <mxCell id="8sdzXCSf-Wj2NtYmuSAt-188" value="" style="endArrow=none;dashed=1;html=1;fontSize=16;strokeColor=#000000;strokeWidth=2;" edge="1" parent="1">
          <mxGeometry width="50" height="50" relative="1" as="geometry">
            <mxPoint x="245" y="570" as="sourcePoint" />
            <mxPoint x="245" y="15" as="targetPoint" />
          </mxGeometry>
        </mxCell>
        <mxCell id="8sdzXCSf-Wj2NtYmuSAt-189" value="R" style="rounded=0;whiteSpace=wrap;html=1;fontSize=16;fillColor=#d5e8d4;strokeColor=#82b366;" vertex="1" parent="1">
          <mxGeometry x="140" y="40" width="100.75" height="40" as="geometry" />
        </mxCell>
        <mxCell id="8sdzXCSf-Wj2NtYmuSAt-190" value="" style="endArrow=none;dashed=1;html=1;fontSize=16;strokeColor=#000000;strokeWidth=2;" edge="1" parent="1">
          <mxGeometry width="50" height="50" relative="1" as="geometry">
            <mxPoint x="245" y="15" as="sourcePoint" />
            <mxPoint x="470" y="15" as="targetPoint" />
          </mxGeometry>
        </mxCell>
        <mxCell id="8sdzXCSf-Wj2NtYmuSAt-191" value="" style="endArrow=none;dashed=1;html=1;fontSize=16;strokeColor=#000000;strokeWidth=2;" edge="1" parent="1">
          <mxGeometry width="50" height="50" relative="1" as="geometry">
            <mxPoint x="465.5" y="575" as="sourcePoint" />
            <mxPoint x="466" y="15" as="targetPoint" />
          </mxGeometry>
        </mxCell>
        <mxCell id="8sdzXCSf-Wj2NtYmuSAt-192" value="" style="endArrow=none;dashed=1;html=1;fontSize=16;strokeColor=#000000;strokeWidth=2;" edge="1" parent="1">
          <mxGeometry width="50" height="50" relative="1" as="geometry">
            <mxPoint x="245" y="575" as="sourcePoint" />
            <mxPoint x="465" y="575" as="targetPoint" />
          </mxGeometry>
        </mxCell>
        <mxCell id="8sdzXCSf-Wj2NtYmuSAt-193" value="" style="endArrow=none;dashed=1;html=1;fontSize=16;strokeColor=#000000;strokeWidth=2;" edge="1" parent="1">
          <mxGeometry width="50" height="50" relative="1" as="geometry">
            <mxPoint x="469.5" y="570" as="sourcePoint" />
            <mxPoint x="469.5" y="15" as="targetPoint" />
          </mxGeometry>
        </mxCell>
        <mxCell id="8sdzXCSf-Wj2NtYmuSAt-194" value="" style="endArrow=none;dashed=1;html=1;fontSize=16;strokeColor=#000000;strokeWidth=2;" edge="1" parent="1">
          <mxGeometry width="50" height="50" relative="1" as="geometry">
            <mxPoint x="469.5" y="15" as="sourcePoint" />
            <mxPoint x="694.5" y="15" as="targetPoint" />
          </mxGeometry>
        </mxCell>
        <mxCell id="8sdzXCSf-Wj2NtYmuSAt-195" value="" style="endArrow=none;dashed=1;html=1;fontSize=16;strokeColor=#000000;strokeWidth=2;" edge="1" parent="1">
          <mxGeometry width="50" height="50" relative="1" as="geometry">
            <mxPoint x="690" y="575" as="sourcePoint" />
            <mxPoint x="690.5" y="15" as="targetPoint" />
          </mxGeometry>
        </mxCell>
        <mxCell id="8sdzXCSf-Wj2NtYmuSAt-196" value="" style="endArrow=none;dashed=1;html=1;fontSize=16;strokeColor=#000000;strokeWidth=2;" edge="1" parent="1">
          <mxGeometry width="50" height="50" relative="1" as="geometry">
            <mxPoint x="469.5" y="575" as="sourcePoint" />
            <mxPoint x="689.5" y="575" as="targetPoint" />
          </mxGeometry>
        </mxCell>
        <mxCell id="8sdzXCSf-Wj2NtYmuSAt-197" value="" style="endArrow=none;dashed=1;html=1;fontSize=16;strokeColor=#000000;strokeWidth=2;" edge="1" parent="1">
          <mxGeometry width="50" height="50" relative="1" as="geometry">
            <mxPoint x="785" y="570" as="sourcePoint" />
            <mxPoint x="785" y="15" as="targetPoint" />
          </mxGeometry>
        </mxCell>
        <mxCell id="8sdzXCSf-Wj2NtYmuSAt-198" value="" style="endArrow=none;dashed=1;html=1;fontSize=16;strokeColor=#000000;strokeWidth=2;" edge="1" parent="1">
          <mxGeometry width="50" height="50" relative="1" as="geometry">
            <mxPoint x="785" y="15" as="sourcePoint" />
            <mxPoint x="1010" y="15" as="targetPoint" />
          </mxGeometry>
        </mxCell>
        <mxCell id="8sdzXCSf-Wj2NtYmuSAt-199" value="" style="endArrow=none;dashed=1;html=1;fontSize=16;strokeColor=#000000;strokeWidth=2;" edge="1" parent="1">
          <mxGeometry width="50" height="50" relative="1" as="geometry">
            <mxPoint x="1005.5" y="575" as="sourcePoint" />
            <mxPoint x="1006" y="15" as="targetPoint" />
          </mxGeometry>
        </mxCell>
        <mxCell id="8sdzXCSf-Wj2NtYmuSAt-200" value="" style="endArrow=none;dashed=1;html=1;fontSize=16;strokeColor=#000000;strokeWidth=2;" edge="1" parent="1">
          <mxGeometry width="50" height="50" relative="1" as="geometry">
            <mxPoint x="785" y="575" as="sourcePoint" />
            <mxPoint x="1005" y="575" as="targetPoint" />
          </mxGeometry>
        </mxCell>
        <mxCell id="8sdzXCSf-Wj2NtYmuSAt-201" value="R" style="rounded=0;whiteSpace=wrap;html=1;fontSize=16;fillColor=#d5e8d4;strokeColor=#82b366;" vertex="1" parent="1">
          <mxGeometry x="119" y="645" width="50.75" height="40" as="geometry" />
        </mxCell>
        <mxCell id="8sdzXCSf-Wj2NtYmuSAt-202" value="&lt;font style=&quot;font-size: 18px&quot;&gt;RS485方向为接收&lt;/font&gt;" style="text;html=1;strokeColor=none;fillColor=none;align=center;verticalAlign=middle;whiteSpace=wrap;rounded=0;fontSize=16;" vertex="1" parent="1">
          <mxGeometry x="184" y="645" width="149" height="40" as="geometry" />
        </mxCell>
        <mxCell id="8sdzXCSf-Wj2NtYmuSAt-203" value="S" style="rounded=0;whiteSpace=wrap;html=1;fontSize=16;fillColor=#dae8fc;strokeColor=#6c8ebf;" vertex="1" parent="1">
          <mxGeometry x="119" y="695" width="50" height="40" as="geometry" />
        </mxCell>
        <mxCell id="8sdzXCSf-Wj2NtYmuSAt-204" value="&lt;font style=&quot;font-size: 18px&quot;&gt;RS485方向为发送&lt;/font&gt;" style="text;html=1;strokeColor=none;fillColor=none;align=center;verticalAlign=middle;whiteSpace=wrap;rounded=0;fontSize=16;" vertex="1" parent="1">
          <mxGeometry x="184" y="695" width="149" height="40" as="geometry" />
        </mxCell>
        <mxCell id="8sdzXCSf-Wj2NtYmuSAt-206" value="&lt;font style=&quot;font-size: 11px&quot;&gt;高阻&lt;/font&gt;" style="rounded=1;whiteSpace=wrap;html=1;fontSize=16;fillColor=#60a917;strokeColor=#2D7600;fontColor=#ffffff;" vertex="1" parent="1">
          <mxGeometry x="119" y="750" width="50" height="40" as="geometry" />
        </mxCell>
        <mxCell id="8sdzXCSf-Wj2NtYmuSAt-207" value="&lt;font style=&quot;font-size: 18px&quot;&gt;无数据&lt;/font&gt;" style="text;html=1;strokeColor=none;fillColor=none;align=left;verticalAlign=middle;whiteSpace=wrap;rounded=0;fontSize=16;" vertex="1" parent="1">
          <mxGeometry x="184" y="750" width="70" height="40" as="geometry" />
        </mxCell>
        <mxCell id="8sdzXCSf-Wj2NtYmuSAt-209" value="" style="rounded=1;whiteSpace=wrap;html=1;fontSize=16;fillColor=#d5e8d4;strokeColor=#82b366;" vertex="1" parent="1">
          <mxGeometry x="386.5" y="645" width="42.5" height="45" as="geometry" />
        </mxCell>
        <mxCell id="8sdzXCSf-Wj2NtYmuSAt-210" value="&lt;font style=&quot;font-size: 18px&quot;&gt;接收到的数据&lt;/font&gt;" style="text;html=1;strokeColor=none;fillColor=none;align=center;verticalAlign=middle;whiteSpace=wrap;rounded=0;fontSize=16;" vertex="1" parent="1">
          <mxGeometry x="434.5" y="647.5" width="120" height="40" as="geometry" />
        </mxCell>
        <mxCell id="8sdzXCSf-Wj2NtYmuSAt-211" value="" style="rounded=1;whiteSpace=wrap;html=1;fontSize=16;fillColor=#dae8fc;strokeColor=#6c8ebf;" vertex="1" parent="1">
          <mxGeometry x="386.5" y="700" width="42.5" height="45" as="geometry" />
        </mxCell>
        <mxCell id="8sdzXCSf-Wj2NtYmuSAt-212" value="&lt;font style=&quot;font-size: 18px&quot;&gt;发送的数据&lt;/font&gt;" style="text;html=1;strokeColor=none;fillColor=none;align=center;verticalAlign=middle;whiteSpace=wrap;rounded=0;fontSize=16;" vertex="1" parent="1">
          <mxGeometry x="439" y="700" width="95" height="40" as="geometry" />
        </mxCell>
        <mxCell id="8sdzXCSf-Wj2NtYmuSAt-213" value="" style="rounded=1;whiteSpace=wrap;html=1;fontSize=16;fillColor=#6a00ff;strokeColor=#3700CC;fontColor=#ffffff;" vertex="1" parent="1">
          <mxGeometry x="386.5" y="755" width="42.5" height="45" as="geometry" />
        </mxCell>
        <mxCell id="8sdzXCSf-Wj2NtYmuSAt-214" value="&lt;font style=&quot;font-size: 18px&quot;&gt;总线的主机的数据&lt;/font&gt;" style="text;html=1;strokeColor=none;fillColor=none;align=center;verticalAlign=middle;whiteSpace=wrap;rounded=0;fontSize=16;" vertex="1" parent="1">
          <mxGeometry x="439" y="755" width="150" height="40" as="geometry" />
        </mxCell>
        <mxCell id="8sdzXCSf-Wj2NtYmuSAt-215" value="" style="rounded=1;whiteSpace=wrap;html=1;fontSize=16;fillColor=#d80073;strokeColor=#A50040;fontColor=#ffffff;" vertex="1" parent="1">
          <mxGeometry x="637.5" y="647.5" width="42.5" height="45" as="geometry" />
        </mxCell>
        <mxCell id="8sdzXCSf-Wj2NtYmuSAt-216" value="&lt;font style=&quot;font-size: 18px&quot;&gt;总线的从机的数据&lt;/font&gt;" style="text;html=1;strokeColor=none;fillColor=none;align=center;verticalAlign=middle;whiteSpace=wrap;rounded=0;fontSize=16;" vertex="1" parent="1">
          <mxGeometry x="690" y="647.5" width="150" height="40" as="geometry" />
        </mxCell>
        <mxCell id="8sdzXCSf-Wj2NtYmuSAt-218" value="地址1仲裁元" style="text;html=1;strokeColor=none;fillColor=none;align=center;verticalAlign=middle;whiteSpace=wrap;rounded=0;fontSize=16;" vertex="1" parent="1">
          <mxGeometry x="290" y="585" width="120" height="30" as="geometry" />
        </mxCell>
        <mxCell id="8sdzXCSf-Wj2NtYmuSAt-219" value="地址2仲裁元" style="text;html=1;strokeColor=none;fillColor=none;align=center;verticalAlign=middle;whiteSpace=wrap;rounded=0;fontSize=16;" vertex="1" parent="1">
          <mxGeometry x="494.5" y="585" width="120" height="30" as="geometry" />
        </mxCell>
        <mxCell id="8sdzXCSf-Wj2NtYmuSAt-220" value="地址n仲裁元" style="text;html=1;strokeColor=none;fillColor=none;align=center;verticalAlign=middle;whiteSpace=wrap;rounded=0;fontSize=16;" vertex="1" parent="1">
          <mxGeometry x="835" y="585" width="120" height="30" as="geometry" />
        </mxCell>
      </root>
    </mxGraphModel>
  </diagram>
</mxfile>
